<?xml version="1.0" standalone="no"?>
<!DOCTYPE svg PUBLIC "-//W3C//DTD SVG 20010904//EN"
 "http://www.w3.org/TR/2001/REC-SVG-20010904/DTD/svg10.dtd">
<svg version="1.0" xmlns="http://www.w3.org/2000/svg"
 width="512.000000pt" height="512.000000pt" viewBox="0 0 512.000000 512.000000"
 preserveAspectRatio="xMidYMid meet">

<g transform="translate(0.000000,512.000000) scale(0.100000,-0.100000)"
fill="#000000" stroke="none">
<path d="M3020 4943 c-91 -32 -163 -101 -199 -190 l-13 -33 -342 0 c-390 0
-405 -2 -474 -73 -99 -101 -95 -247 8 -340 26 -24 66 -49 88 -55 26 -8 128
-12 300 -12 l261 0 -6 -54 c-6 -58 8 -114 39 -159 18 -26 19 -30 4 -46 -22
-24 -46 -97 -46 -141 0 -44 24 -117 46 -141 15 -16 14 -20 -3 -46 -68 -97 -55
-211 32 -299 75 -75 83 -76 480 -72 l340 3 80 28 c49 17 118 54 177 93 170
115 132 108 666 114 l464 5 19 24 c27 33 24 77 -6 107 l-25 25 -463 -3 -462
-3 -80 -28 c-49 -17 -118 -54 -178 -93 -163 -110 -157 -108 -544 -112 l-333
-3 -25 25 c-50 50 -15 136 55 136 41 0 80 39 80 80 0 41 -39 80 -80 80 -41 0
-80 39 -80 80 0 40 39 80 78 80 41 0 72 28 78 72 5 30 2 41 -19 62 -17 17 -37
26 -57 26 -41 0 -80 39 -80 80 0 41 39 80 80 80 41 0 80 39 80 80 0 19 -9 40
-25 55 l-24 25 -391 0 -391 0 -24 25 c-33 32 -33 78 0 110 l24 25 591 0 591 0
24 25 c16 15 25 36 25 55 0 19 -9 40 -25 55 -24 25 -27 25 -191 25 l-167 0 24
26 c46 50 70 54 322 54 338 0 375 -13 554 -189 86 -86 123 -115 183 -144 122
-60 173 -67 533 -67 l318 0 24 25 c33 32 33 78 0 110 l-24 25 -313 0 c-430 0
-449 6 -636 190 -122 120 -203 169 -329 195 -101 22 -551 20 -613 -2z"/>
<path d="M2122 4068 c-51 -25 -188 -278 -199 -367 -15 -132 101 -261 237 -261
121 0 240 117 240 235 0 54 -53 180 -122 291 -68 108 -100 129 -156 102z"/>
<path d="M1865 3175 l-25 -24 0 -293 0 -294 -31 -11 c-19 -7 -34 -23 -41 -41
l-12 -30 -165 -4 c-162 -3 -168 -4 -233 -35 -93 -44 -151 -100 -196 -191 l-37
-76 0 -856 0 -856 37 -76 c45 -91 103 -147 196 -191 l67 -32 656 0 655 0 76
38 c112 55 182 141 214 262 11 40 14 215 14 855 0 640 -3 815 -14 855 -32 121
-102 207 -214 262 l-76 38 -166 3 -166 4 -12 30 c-7 18 -22 34 -41 41 l-31 11
0 294 0 293 -25 24 c-24 25 -26 25 -215 25 -189 0 -191 0 -215 -25z m295 -535
l0 -80 -80 0 -80 0 0 80 0 80 80 0 80 0 0 -80z m80 -360 l0 -120 -160 0 -160
0 0 120 0 120 160 0 160 0 0 -120z m-675 -169 c26 -24 76 -57 113 -74 l67 -32
335 0 335 0 67 32 c107 50 181 136 222 256 5 17 7 17 43 -2 45 -23 83 -62 109
-111 18 -33 19 -77 22 -848 l2 -812 -21 -50 c-26 -60 -91 -122 -147 -138 -56
-17 -1208 -17 -1264 0 -22 6 -62 31 -88 55 -84 76 -80 27 -80 931 0 574 3 805
12 833 14 49 69 114 116 138 l36 19 38 -78 c24 -49 54 -92 83 -119z"/>
<path d="M1465 1815 l-25 -24 0 -511 0 -511 25 -24 24 -25 589 0 c566 0 591 1
613 19 l24 19 3 516 3 516 -25 25 -25 25 -591 0 -591 0 -24 -25z m431 -320
l25 -25 -3 -196 c-3 -192 -3 -196 -27 -215 -32 -26 -77 -24 -106 6 -25 24 -25
26 -25 215 0 189 0 191 25 215 32 33 78 33 111 0z m480 0 l25 -25 -3 -196 c-3
-192 -3 -196 -27 -215 -32 -26 -77 -24 -106 6 -25 24 -25 26 -25 215 0 189 0
191 25 215 32 33 78 33 111 0z m-239 -321 c21 -21 24 -32 19 -62 -6 -44 -37
-72 -78 -72 -39 0 -78 40 -78 80 0 71 86 105 137 54z"/>
</g>
</svg>
